<svg width="36" height="35" viewBox="0 0 36 35" fill="none" xmlns="http://www.w3.org/2000/svg">
<circle cx="18.167" cy="17.5" r="17.5" fill="#EAEAEA"/>
<path d="M24.4003 11.3412L23.2394 12.2482L18.2966 15.9213L13.3537 12.2119L12.1928 11.3049C11.9193 11.0787 11.5854 10.9376 11.2326 10.8993C10.8797 10.8609 10.5234 10.927 10.2076 11.0892C9.89194 11.2514 9.63075 11.5026 9.45645 11.8118C9.28214 12.121 9.20238 12.4745 9.22704 12.8286V23.3402C9.22704 23.6673 9.35699 23.981 9.58831 24.2124C9.81963 24.4437 10.1334 24.5736 10.4605 24.5736H13.3537V17.572L18.2966 21.2814L23.2394 17.572V24.5736H26.1326C26.4598 24.5736 26.7735 24.4437 27.0048 24.2124C27.2361 23.981 27.3661 23.6673 27.3661 23.3402V12.8286C27.3831 12.4776 27.2978 12.1292 27.1205 11.8257C26.9432 11.5223 26.6816 11.2769 26.3675 11.1193C26.0533 10.9618 25.7002 10.8988 25.351 10.9382C25.0018 10.9776 24.6715 11.1176 24.4003 11.3412Z" fill="#333333"/>
</svg>
