<svg width="36" height="35" viewBox="0 0 36 35" fill="none" xmlns="http://www.w3.org/2000/svg">
<circle cx="17.8335" cy="17.5" r="17.5" fill="#EAEAEA"/>
<path d="M19.2296 8.55566C20.2504 8.55839 20.7685 8.56383 21.2159 8.57653L21.3919 8.58289C21.5952 8.59015 21.7957 8.59922 22.038 8.61011C23.0035 8.65548 23.6623 8.80792 24.2403 9.03205C24.8392 9.26253 25.3437 9.57468 25.8482 10.0783C26.3098 10.5318 26.6669 11.0805 26.8944 11.6862C27.1186 12.2642 27.271 12.923 27.3164 13.8894C27.3273 14.1308 27.3363 14.3313 27.3436 14.5355L27.3491 14.7115C27.3627 15.158 27.3681 15.6761 27.3699 16.6969L27.3708 17.3738V18.5626C27.373 19.2244 27.3661 19.8863 27.35 20.548L27.3445 20.724C27.3373 20.9282 27.3282 21.1287 27.3173 21.3701C27.2719 22.3365 27.1177 22.9943 26.8944 23.5733C26.6669 24.179 26.3098 24.7277 25.8482 25.1812C25.3947 25.6428 24.846 25.9998 24.2403 26.2274C23.6623 26.4516 23.0035 26.604 22.038 26.6494L21.3919 26.6766L21.2159 26.682C20.7685 26.6947 20.2504 26.7011 19.2296 26.7029L18.5526 26.7038H17.3649C16.7027 26.7061 16.0405 26.6992 15.3785 26.6829L15.2025 26.6775C14.9871 26.6693 14.7717 26.66 14.5564 26.6494C13.5909 26.604 12.9322 26.4516 12.3532 26.2274C11.7478 25.9997 11.1994 25.6427 10.7462 25.1812C10.2843 24.7278 9.92693 24.1791 9.69907 23.5733C9.47494 22.9952 9.3225 22.3365 9.27713 21.3701L9.24991 20.724L9.24537 20.548C9.22864 19.8863 9.22108 19.2244 9.22268 18.5626V16.6969C9.22017 16.0351 9.22683 15.3732 9.24265 14.7115L9.249 14.5355C9.25626 14.3313 9.26533 14.1308 9.27622 13.8894C9.32159 12.923 9.47404 12.2651 9.69817 11.6862C9.92655 11.0803 10.2846 10.5315 10.7471 10.0783C11.2001 9.61692 11.7482 9.25988 12.3532 9.03205C12.9322 8.80792 13.59 8.65548 14.5564 8.61011C14.7978 8.59922 14.9992 8.59015 15.2025 8.58289L15.3785 8.57744C16.0402 8.56132 16.7021 8.55436 17.3639 8.55657L19.2296 8.55566ZM18.2968 13.0927C17.0935 13.0927 15.9394 13.5707 15.0886 14.4216C14.2377 15.2724 13.7597 16.4264 13.7597 17.6297C13.7597 18.833 14.2377 19.987 15.0886 20.8379C15.9394 21.6888 17.0935 22.1668 18.2968 22.1668C19.5001 22.1668 20.6541 21.6888 21.5049 20.8379C22.3558 19.987 22.8338 18.833 22.8338 17.6297C22.8338 16.4264 22.3558 15.2724 21.5049 14.4216C20.6541 13.5707 19.5001 13.0927 18.2968 13.0927ZM18.2968 14.9075C18.6542 14.9075 19.0082 14.9778 19.3385 15.1146C19.6688 15.2513 19.969 15.4518 20.2218 15.7045C20.4746 15.9573 20.6752 16.2573 20.812 16.5876C20.9489 16.9178 21.0194 17.2718 21.0194 17.6293C21.0195 17.9868 20.9491 18.3408 20.8124 18.6711C20.6756 19.0014 20.4752 19.3015 20.2224 19.5543C19.9697 19.8071 19.6696 20.0077 19.3394 20.1446C19.0091 20.2814 18.6552 20.3519 18.2977 20.352C17.5757 20.352 16.8833 20.0652 16.3728 19.5546C15.8622 19.0441 15.5754 18.3517 15.5754 17.6297C15.5754 16.9078 15.8622 16.2154 16.3728 15.7048C16.8833 15.1943 17.5757 14.9075 18.2977 14.9075M23.0616 11.7316C22.7607 11.7316 22.4722 11.8511 22.2595 12.0638C22.0468 12.2765 21.9273 12.565 21.9273 12.8658C21.9273 13.1667 22.0468 13.4552 22.2595 13.6679C22.4722 13.8806 22.7607 14.0001 23.0616 14.0001C23.3624 14.0001 23.6509 13.8806 23.8636 13.6679C24.0763 13.4552 24.1958 13.1667 24.1958 12.8658C24.1958 12.565 24.0763 12.2765 23.8636 12.0638C23.6509 11.8511 23.3624 11.7316 23.0616 11.7316Z" fill="#333333"/>
</svg>
