<svg width="35" height="35" viewBox="0 0 35 35" fill="none" xmlns="http://www.w3.org/2000/svg">
<circle cx="17.5" cy="17.5" r="17.5" fill="#EAEAEA"/>
<path d="M22.3996 10.2642C21.6084 9.36091 21.1723 8.20085 21.1726 7H17.5959V21.3533C17.5683 22.13 17.2404 22.8658 16.6812 23.4055C16.122 23.9453 15.3751 24.247 14.5979 24.2471C12.9542 24.2471 11.5883 22.9044 11.5883 21.2376C11.5883 19.2466 13.5098 17.7534 15.4892 18.3669V14.7091C11.4957 14.1767 8 17.2788 8 21.2376C8 25.0921 11.1948 27.8355 14.5863 27.8355C18.221 27.8355 21.1726 24.8838 21.1726 21.2376V13.9567C22.623 14.9983 24.3644 15.5572 26.15 15.5541V11.9774C26.15 11.9774 23.9739 12.0815 22.3996 10.2642Z" fill="#333333"/>
</svg>
